<?xml version="1.0" encoding="UTF-8"?>
<!DOCTYPE svg PUBLIC "-//W3C//DTD SVG 1.1//EN" "http://www.w3.org/Graphics/SVG/1.1/DTD/svg11.dtd">
<!-- Creator: CorelDRAW 2021 (64 Bit) -->
<svg xmlns="http://www.w3.org/2000/svg" xml:space="preserve" width="32px" height="32px" version="1.1" style="shape-rendering:geometricPrecision; text-rendering:geometricPrecision; image-rendering:optimizeQuality; fill-rule:evenodd; clip-rule:evenodd"
viewBox="0 0 304.78 304.78"
 xmlns:xlink="http://www.w3.org/1999/xlink"
 xmlns:xodm="http://www.corel.com/coreldraw/odm/2003">
 <defs>
  <style type="text/css">
   <![CDATA[
    .fil0 {fill:#373435;fill-rule:nonzero}
   ]]>
  </style>
 </defs>
 <g id="Camada_x0020_1">
  <metadata id="CorelCorpID_0Corel-Layer"/>
  <path class="fil0" d="M209.41 186.63l-12 0 -4.25 -4.1c14.88,-17.31 23.84,-39.78 23.84,-64.23 0,-54.51 -44.19,-98.7 -98.7,-98.7 -54.52,0 -98.7,44.19 -98.7,98.7 0,54.51 44.19,98.7 98.7,98.7 24.45,0 46.92,-8.96 64.23,-23.84l4.1 4.25 0 12c25.31,25.25 50.61,50.51 75.92,75.77 14.47,8.36 31.35,-13.9 22.63,-22.62l-75.77 -75.93zm-91.11 0c-37.81,0 -68.33,-30.52 -68.33,-68.33 0,-37.82 30.52,-68.33 68.33,-68.33 37.81,0 68.33,30.52 68.33,68.33 0,37.81 -30.52,68.33 -68.33,68.33z"/>
 </g>
</svg>
